<svg height="512pt" viewBox="-35 0 512 512" width="512pt" xmlns="http://www.w3.org/2000/svg"><path d="m351.175781 504.5h-343.671875v-420.199219l76.800782-76.800781h266.871093zm0 0" fill="#fff4f1"/><path d="m7.503906 84.300781h76.800782v-76.800781zm0 0" fill="#fff4f1"/><path d="m7.503906 84.300781h76.800782v-76.800781zm0 0" fill="#4890e3"/><path d="m67.21875 274.839844h224.242188v53.929687h-224.242188zm0 0" fill="#91bcee"/><path d="m328.175781 7.5h23v497h-23zm0 0" fill="#ecedef"/><path d="m268.460938 274.839844h23v53.929687h-23zm0 0" fill="#4890e3"/><path d="m374.679688 391.304688h-211.148438v51.585937h211.148438v29.046875l59.890624-54.839844-59.890624-54.835937zm0 0" fill="#f45a3c"/><path d="m374.679688 362.261719v21.054687l36.890624 33.78125-36.890624 33.78125v21.058594l59.890624-54.839844zm0 0" fill="#eb4c36"/><g fill="#18191b"><path d="m68.910156 145.660156h72.367188c4.144531 0 7.5-3.355468 7.5-7.5 0-4.140625-3.355469-7.5-7.5-7.5h-72.367188c-4.140625 0-7.5 3.359375-7.5 7.5 0 4.144532 3.359375 7.5 7.5 7.5zm0 0"/><path d="m67.835938 211.945312h223.003906c4.144531 0 7.5-3.359374 7.5-7.5 0-4.140624-3.355469-7.5-7.5-7.5h-223.003906c-4.140626 0-7.5 3.359376-7.5 7.5 0 4.140626 3.359374 7.5 7.5 7.5zm0 0"/><path d="m67.835938 242.566406h223.003906c4.144531 0 7.5-3.355468 7.5-7.5 0-4.140625-3.355469-7.5-7.5-7.5h-223.003906c-4.140626 0-7.5 3.359375-7.5 7.5 0 4.144532 3.359374 7.5 7.5 7.5zm0 0"/><path d="m59.71875 328.769531c0 4.140625 3.359375 7.5 7.5 7.5h224.242188c4.140624 0 7.5-3.359375 7.5-7.5v-53.929687c0-4.144532-3.359376-7.5-7.5-7.5h-224.242188c-4.140625 0-7.5 3.355468-7.5 7.5zm15-46.429687h209.242188v38.929687h-209.242188zm0 0"/><path d="m439.636719 411.566406-59.894531-54.839844c-2.191407-2.003906-5.363282-2.527343-8.085938-1.332031-2.722656 1.199219-4.476562 3.890625-4.476562 6.863281v21.546876h-8.5v-238.578126c0-4.140624-3.359376-7.5-7.5-7.5-4.144532 0-7.5 3.359376-7.5 7.5v238.582032h-180.148438c-4.140625 0-7.5 3.355468-7.5 7.5v51.582031c0 4.140625 3.359375 7.5 7.5 7.5h180.144531v46.609375h-328.671875v-405.199219h69.300782c4.140624 0 7.5-3.359375 7.5-7.5v-69.300781h251.871093v98.226562c0 4.144532 3.359375 7.5 7.5 7.5 4.144531 0 7.5-3.355468 7.5-7.5v-105.726562c0-4.140625-3.355469-7.5-7.5-7.5h-266.871093c-.085938 0-.171876.0117188-.257813.0117188-.082031.0039062-.164063.0078124-.246094.0117187-.320312.0234375-.640625.0585937-.957031.1210935h-.003906c-.316406.0625-.625.152344-.933594.257813-.078125.027344-.160156.054687-.238281.085937-.28125.105469-.554688.222657-.820313.359375-.023437.011719-.050781.023438-.074218.035156-.28125.148438-.546876.324219-.804688.507813-.078125.054687-.152344.109375-.226562.167969-.242188.183594-.476563.378906-.695313.597656-.015625.015625-.03125.027344-.050781.039062l-76.796875 76.800782c-.238281.238281-.453125.496094-.652344.757812-.050781.066406-.101563.132813-.148437.199219-.1875.265625-.367188.539063-.519532.824219-.007812.015625-.011718.027344-.019531.042968-.144531.273438-.265625.5625-.375.851563-.027344.074219-.054687.152344-.082031.230469-.101563.304687-.191406.613281-.257813.933594v.011718c-.0624998.3125-.097656.628906-.1171872.945313-.0078126.085937-.0117188.171875-.015625.253906 0 .085937-.0117188.167969-.0117188.253906v420.199219c0 4.140625 3.359375 7.5 7.5 7.5h343.675781c4.144531 0 7.5-3.359375 7.5-7.5v-54.109375h8.503907v21.546875c0 2.972656 1.753906 5.664062 4.476562 6.863281.972656.425781 2 .636719 3.019531.636719 1.839844 0 3.65625-.679688 5.066407-1.96875l59.894531-54.839844c1.550781-1.417968 2.4375-3.425781 2.4375-5.53125 0-2.105468-.886719-4.109375-2.4375-5.53125zm-414.027344-334.765625 51.195313-51.191406v51.191406zm356.570313 378.097657v-12.007813c0-4.144531-3.359376-7.5-7.5-7.5h-203.648438v-36.582031h203.648438c4.140624 0 7.5-3.359375 7.5-7.5v-12.011719l41.285156 37.800781zm0 0"/></g></svg>