<?xml version="1.0" encoding="iso-8859-1"?>
<!-- Generator: Adobe Illustrator 19.0.0, SVG Export Plug-In . SVG Version: 6.00 Build 0)  -->
<svg version="1.1" id="Capa_1" xmlns="http://www.w3.org/2000/svg" xmlns:xlink="http://www.w3.org/1999/xlink" x="0px" y="0px"
	 viewBox="0 0 512.001 512.001" style="enable-background:new 0 0 512.001 512.001;" xml:space="preserve">
<path style="fill:#FFFFFF;" d="M290.247,433.972c-0.102,0.102-0.272,0.073-0.323-0.063c-0.018-0.048-0.04-0.104-0.059-0.154
	c0.056,0.149,0.113,0.298,0.164,0.434l-0.772,0.772l-62.452,11.423c-0.362,0.067-0.678-0.25-0.613-0.612l11.423-62.452l0.838-0.838
	c0.114,0.039,0.238,0.081,0.36,0.123c-0.021-0.007-0.046-0.016-0.066-0.024c-0.14-0.048-0.173-0.222-0.069-0.326l112.372-112.372
	V101.287H19.759v403.018h331.295V373.167L290.247,433.972z"/>
<path style="fill:#898890;" d="M351.483,292.852L238.681,405.655c-0.104,0.104-0.07,0.278,0.069,0.326
	c0.019,0.007,0.045,0.016,0.066,0.024c-0.122-0.042-0.246-0.085-0.36-0.123l-0.838,0.838l-11.423,62.452
	c-0.067,0.362,0.25,0.678,0.613,0.612l62.452-11.423l0.772-0.772c-0.051-0.136-0.108-0.285-0.164-0.434
	c0.02,0.05,0.04,0.106,0.059,0.154c0.051,0.134,0.222,0.164,0.323,0.063l61.235-61.235L351.483,292.852L351.483,292.852z"/>
<path style="fill:#ACABB1;" d="M351.053,101.287H87.3H19.759v43.906v359.112H87.3v-318.24c0-22.573,18.299-40.871,40.871-40.871
	h222.882v-43.906H351.053z"/>
<path style="fill:#FFFFFF;" d="M238.455,382.482l-0.838,0.838l-11.423,62.452c-0.067,0.362,0.25,0.678,0.613,0.612l62.452-11.423
	l0.772-0.772c-2.199-5.843-9.136-22.792-18.993-32.648C259.971,390.475,244.126,384.405,238.455,382.482z"/>
<path style="fill:#ACABB1;" d="M238.455,382.482l-0.838,0.838l-11.407,62.362l44.479-44.479
	C259.642,390.353,244.068,384.384,238.455,382.482z"/>
<path style="fill:#C3FB3A;" d="M485.622,217.004l-30.046-30.046c-5.963-5.963-15.631-5.963-21.594,0l-40.844,40.844l51.641,51.641
	l40.844-40.844C491.585,232.635,491.585,222.967,485.622,217.004z"/>
<path style="fill:#FF5023;" d="M393.137,227.801L238.681,382.257c-0.104,0.104-0.07,0.278,0.069,0.326
	c5.908,2.027,21.407,8.079,32.288,18.958c9.704,9.704,16.578,26.281,18.888,32.368c0.051,0.135,0.222,0.164,0.323,0.063
	l154.53-154.53L393.137,227.801z"/>
<path style="fill:#D80029;" d="M393.137,227.801L238.681,382.257c-0.104,0.104-0.07,0.278,0.069,0.326
	c5.845,2.006,21.075,7.96,31.936,18.625L418.615,253.28L393.137,227.801z"/>
<path style="fill:#65C27C;" d="M455.575,186.957c-5.963-5.963-15.631-5.963-21.594,0l-40.844,40.844l25.477,25.477l51.641-51.641
	L455.575,186.957z"/>
<rect x="19.759" y="26.542" style="fill:#78BAEC;" width="331.293" height="74.745"/>
<rect x="19.759" y="26.542" style="fill:#016EF1;" width="67.541" height="74.745"/>
<g>
	
		<rect x="355.053" y="262.33" transform="matrix(-0.7071 -0.7071 0.7071 -0.7071 400.1678 785.4108)" style="fill:#FFFFFF;" width="15.39" height="94.996"/>
	
		<rect x="299.1" y="349.468" transform="matrix(-0.7071 -0.7071 0.7071 -0.7071 265.0896 841.3529)" style="fill:#FFFFFF;" width="15.39" height="32.614"/>
	<rect x="141.111" y="71.46" style="fill:#FFFFFF;" width="85.072" height="15.39"/>
	<rect x="239.217" y="71.46" style="fill:#FFFFFF;" width="49.555" height="15.39"/>
</g>
<rect x="63.312" y="140.079" width="244.186" height="15.39"/>
<rect x="63.312" y="199.822" width="244.186" height="15.39"/>
<rect x="63.312" y="259.576" width="244.186" height="15.39"/>
<path d="M491.063,244.038L491.063,244.038c4.338-4.338,6.726-10.104,6.726-16.238c0-6.134-2.389-11.902-6.726-16.238l-30.047-30.046
	c-4.338-4.338-10.104-6.726-16.238-6.726c-6.134,0-11.902,2.389-16.238,6.726l0,0l-69.791,69.791l0,0l0,0V18.847l0,0h-43.554V0
	h-15.39v18.847h-33.447V0h-15.39v18.847h-33.447V0h-15.39v18.847h-33.447V0h-15.39v18.847h-33.447V0h-15.39v18.847H71.007V0h-15.39
	v18.847H12.064l0,0l0,0v493.154h346.684V376.355l0,0L491.063,244.038z M439.422,192.398c1.431-1.431,3.333-2.218,5.357-2.218
	s3.925,0.788,5.356,2.218l30.047,30.046c1.431,1.431,2.218,3.333,2.218,5.357s-0.788,3.925-2.218,5.356l-35.403,35.403l0,0
	l-40.76-40.759L439.422,192.398z M27.454,34.237h28.165v18.784h15.39V34.237h33.447v18.784h15.39V34.237h33.447v18.784h15.39V34.237
	h33.447v18.784h15.39V34.237h33.447v18.784h15.39V34.237h33.447v18.784h15.39V34.237h28.164v59.355H27.454V34.237z M343.358,496.61
	H27.454V108.982h315.904v157.716l-52.625,52.625H63.312v15.39h212.031l-44.358,44.359l0,0l0,0l0,0H63.312v15.39h164.445
	l-8.114,44.358H63.312v15.39h163.661v-0.123l0.53-0.006l65.498-11.981l5.976-5.977l44.378-44.378V496.61H343.358z M252.051,396.987
	c0.748,0.424,1.5,0.865,2.255,1.325c0.204,0.124,0.409,0.251,0.615,0.38c0.783,0.486,1.565,0.991,2.342,1.517
	c0.145,0.097,0.289,0.197,0.434,0.297c0.814,0.559,1.62,1.139,2.415,1.741c0.104,0.079,0.208,0.156,0.311,0.235
	c0.851,0.653,1.687,1.329,2.501,2.031c0.07,0.061,0.14,0.121,0.209,0.182c0.846,0.737,1.671,1.497,2.463,2.288
	c0.33,0.33,0.657,0.675,0.981,1.025c0.103,0.112,0.205,0.226,0.308,0.339c0.225,0.248,0.447,0.501,0.668,0.757
	c0.112,0.129,0.223,0.258,0.333,0.389c0.249,0.297,0.497,0.598,0.742,0.904c0.156,0.195,0.311,0.393,0.465,0.591
	c0.183,0.235,0.365,0.471,0.545,0.71c0.161,0.214,0.321,0.432,0.48,0.65c0.118,0.161,0.235,0.324,0.352,0.487
	c0.18,0.25,0.358,0.502,0.535,0.756c0.032,0.046,0.064,0.094,0.096,0.141c3.44,4.992,6.314,10.617,8.4,15.193l-43.868,8.024
	l8.075-44.142c0.129,0.057,0.26,0.115,0.39,0.173c0.567,0.253,1.15,0.521,1.746,0.801c0.264,0.124,0.531,0.252,0.8,0.382
	c0.584,0.281,1.18,0.578,1.784,0.883c0.323,0.164,0.648,0.331,0.977,0.503c0.622,0.325,1.251,0.663,1.885,1.014
	C251.542,396.702,251.795,396.843,252.051,396.987z M433.896,279.441L292.651,420.686c-2.573-5.444-5.968-11.723-10.078-17.366
	c-0.021-0.028-0.04-0.055-0.061-0.083c-0.736-1.008-1.493-1.995-2.274-2.952c-0.032-0.039-0.064-0.076-0.095-0.114
	c-0.329-0.402-0.664-0.798-1.001-1.19c-0.104-0.12-0.208-0.24-0.313-0.359c-0.281-0.32-0.564-0.636-0.851-0.948
	c-0.111-0.12-0.22-0.241-0.331-0.36c-0.386-0.412-0.774-0.819-1.169-1.213c-0.907-0.907-1.843-1.779-2.796-2.623
	c-0.066-0.057-0.13-0.115-0.196-0.172c-6.879-6.049-14.777-10.517-21.373-13.596l141.024-141.024L433.896,279.441L433.896,279.441
	L433.896,279.441z"/>
<rect x="385.073" y="309.528" transform="matrix(-0.7071 0.7071 -0.7071 -0.7071 991.0944 223.921)" width="128.197" height="15.39"/>
<rect x="384.398" y="173.088" transform="matrix(-0.7071 -0.7071 0.7071 -0.7071 533.3605 605.5444)" width="15.39" height="38.444"/>
<polygon points="243.303,489.513 334.804,489.513 334.804,441.914 319.414,441.914 319.414,474.123 243.303,474.123 "/>
<rect x="194.678" y="474.121" width="36.586" height="15.39"/>
<g>
</g>
<g>
</g>
<g>
</g>
<g>
</g>
<g>
</g>
<g>
</g>
<g>
</g>
<g>
</g>
<g>
</g>
<g>
</g>
<g>
</g>
<g>
</g>
<g>
</g>
<g>
</g>
<g>
</g>
</svg>
