<svg height="512" viewBox="0 0 64 64" width="512" xmlns="http://www.w3.org/2000/svg"><g id="voice_assistent" data-name="voice assistent"><path d="m37 5.94v3.06a1 1 0 0 1 -2 0v-3.67a14.59331 14.59331 0 0 0 -2-.28v5.95a1 1 0 0 1 -2 0v-5.95a14.59461 14.59461 0 0 0 -2 .28v3.67a1 1 0 0 1 -2 0v-3.06a14.01338 14.01338 0 0 0 -9 13.06v9a14 14 0 0 0 28 0v-9a14.01338 14.01338 0 0 0 -9-13.06zm-5 28.06a3 3 0 1 1 3-3 3.00887 3.00887 0 0 1 -3 3zm5.28-4.04a.90272.90272 0 0 1 -.28.04 1.005 1.005 0 0 1 -.96-.71 4.1255 4.1255 0 0 0 -8.08 0 1.00284 1.00284 0 0 1 -1.92-.58 6.12587 6.12587 0 0 1 11.92 0 1.00457 1.00457 0 0 1 -.68 1.25zm3.04-2.01a1.24941 1.24941 0 0 1 -.32.05.99639.99639 0 0 1 -.95-.68 7.33127 7.33127 0 0 0 -14.1 0 1.00246 1.00246 0 0 1 -1.9-.64 9.33571 9.33571 0 0 1 17.9 0 1.011 1.011 0 0 1 -.63 1.27zm3.01-2a1.25872 1.25872 0 0 1 -.33.05 1.01 1.01 0 0 1 -.95-.67 10.55467 10.55467 0 0 0 -20.1 0 1.00569 1.00569 0 1 1 -1.9-.66 12.57046 12.57046 0 0 1 23.9 0 1.01667 1.01667 0 0 1 -.62 1.28z"/><path d="m12 30a1 1 0 0 1 2 0 16.02637 16.02637 0 0 0 14.01 15.87.56934.56934 0 0 0 -.01.13v1.88a18.01573 18.01573 0 0 1 -16-17.88z"/><path d="m30 47h4v6h-4z"/><path d="m34.97 55.04c7.3.24 11.71 1.24 12.84 1.96-1.25.77-6.58 2-15.81 2s-14.56-1.23-15.81-2c1.13-.72 5.54-1.72 12.83-1.96 1.93-.04 4.04-.04 5.95 0z"/><path d="m36 46a.56934.56934 0 0 0 -.01-.13 16.02637 16.02637 0 0 0 14.01-15.87 1 1 0 0 1 2 0 18.01573 18.01573 0 0 1 -16 17.88z"/></g></svg>