<svg height="512pt" viewBox="0 0 512 512" width="512pt" xmlns="http://www.w3.org/2000/svg"><path d="m35.308594 35.308594h476.691406v264.828125h-476.691406zm0 0" fill="#90bae1"/><path d="m277.804688 326.621094h-57.113282v88.277344h105.929688v-88.277344h-57.113282zm0 0" fill="#35495e"/><path d="m512 17.65625v308.964844c-.027344 9.738281-7.917969 17.625-17.65625 17.65625h-458.855469c-.089843-.796875-.179687-16.773438-.179687-17.65625v-308.964844c.03125-9.738281 7.917968-17.6289062 17.65625-17.65625h441.378906c9.738281.0273438 17.628906 7.917969 17.65625 17.65625zm0 0" fill="#41767f"/><path d="m512 35.308594v264.828125h-476.691406v-27.894531c101.164062-7.0625 323.886718-45.109376 457.800781-236.933594zm0 0" fill="#90bae1"/><path d="m493.109375 35.308594c-133.914063 191.824218-356.636719 229.871094-457.800781 236.933594v-236.933594zm0 0" fill="#b0d3f0"/><g fill="#2c3e50"><path d="m238.34375 35.308594c-.011719 4.871094-3.957031 8.816406-8.828125 8.828125h-194.207031v-17.652344h194.207031c4.871094.011719 8.816406 3.957031 8.828125 8.824219zm0 0"/><path d="m512 26.484375v17.652344h-194.207031c-4.875 0-8.828125-3.949219-8.828125-8.828125 0-4.875 3.953125-8.824219 8.828125-8.824219zm0 0"/><path d="m282.484375 44.136719h-17.65625c-4.875 0-8.828125-3.949219-8.828125-8.828125 0-4.875 3.953125-8.824219 8.828125-8.824219h17.65625c4.875 0 8.824219 3.949219 8.824219 8.824219 0 4.878906-3.949219 8.828125-8.824219 8.828125zm0 0"/></g><path d="m158.898438 432.550781h229.515624v-17.652343c0-9.753907-7.90625-17.65625-17.65625-17.65625h-211.859374zm0 0" fill="#41767f"/><path d="m35.308594 52.964844h176.554687c19.5 0 35.308594 15.808594 35.308594 35.3125v388.414062c0 19.5-15.808594 35.308594-35.308594 35.308594h-176.554687c-19.5 0-35.308594-15.808594-35.308594-35.308594v-388.414062c0-19.503906 15.808594-35.3125 35.308594-35.3125zm0 0" fill="#464f5d"/><path d="m35.308594 123.585938h176.554687c19.5 0 35.308594 15.808593 35.308594 35.3125v273.652343c0 19.503907-15.808594 35.3125-35.308594 35.3125h-176.554687c-19.5 0-35.308594-15.808593-35.308594-35.3125v-273.652343c0-19.503907 15.808594-35.3125 35.308594-35.3125zm0 0" fill="#b0d3f0"/><path d="m247.171875 158.898438v273.652343c.003906 9.367188-3.714844 18.347657-10.339844 24.972657-6.621093 6.621093-15.605469 10.339843-24.96875 10.339843h-176.554687c-15.761719.042969-29.625-10.425781-33.894532-25.601562 136.738282-75.035157 177.257813-244.964844 188.554688-318.675781h21.894531c9.363281-.003907 18.347657 3.71875 24.96875 10.339843 6.625 6.621094 10.34375 15.605469 10.339844 24.972657zm0 0" fill="#90bae1"/><path d="m123.585938 220.691406c9.75 0 17.65625 7.902344 17.65625 17.652344v44.140625c0 9.75-7.90625 17.652344-17.65625 17.652344s-17.65625-7.902344-17.65625-17.652344v-44.140625c0-9.75 7.90625-17.652344 17.65625-17.652344zm0 0" fill="#ff5364"/><path d="m123.585938 335.449219c-29.238282-.03125-52.933594-23.726563-52.964844-52.964844v-8.828125c0-4.875 3.953125-8.828125 8.828125-8.828125s8.828125 3.953125 8.828125 8.828125v8.828125c0 19.5 15.808594 35.308594 35.308594 35.308594s35.3125-15.808594 35.3125-35.308594v-8.828125c0-4.875 3.949218-8.828125 8.824218-8.828125s8.828125 3.953125 8.828125 8.828125v8.828125c-.03125 29.238281-23.726562 52.933594-52.964843 52.964844zm0 0" fill="#ff5364"/><path d="m141.242188 370.757812h-35.3125c-4.875 0-8.828126-3.953124-8.828126-8.828124s3.953126-8.828126 8.828126-8.828126h8.828124v-26.480468c0-4.875 3.953126-8.828125 8.828126-8.828125s8.828124 3.953125 8.828124 8.828125v26.480468h8.828126c4.875 0 8.828124 3.953126 8.828124 8.828126s-3.953124 8.828124-8.828124 8.828124zm0 0" fill="#ff5364"/><path d="m88.277344 97.101562c-1.15625-.011718-2.292969-.253906-3.355469-.703124-1.082031-.429688-2.070313-1.058594-2.914063-1.855469-.777343-.859375-1.40625-1.84375-1.851562-2.914063-.453125-1.058594-.695312-2.199218-.707031-3.351562.03125-2.339844.945312-4.578125 2.558593-6.269532.84375-.796874 1.832032-1.425781 2.914063-1.851562 3.285156-1.382812 7.082031-.652344 9.621094 1.851562 2.546875 2.527344 3.3125 6.339844 1.9375 9.652344s-4.617188 5.464844-8.203125 5.441406zm0 0" fill="#2c2f38"/><path d="m158.898438 97.101562h-35.3125c-4.875 0-8.828126-3.949218-8.828126-8.824218s3.953126-8.828125 8.828126-8.828125h35.3125c4.875 0 8.824218 3.953125 8.824218 8.828125s-3.949218 8.824218-8.824218 8.824218zm0 0" fill="#2c2f38"/></svg>